<?xml version="1.0" standalone="no"?>
<!DOCTYPE svg PUBLIC "-//W3C//DTD SVG 20010904//EN"
 "http://www.w3.org/TR/2001/REC-SVG-20010904/DTD/svg10.dtd">
<svg version="1.0" xmlns="http://www.w3.org/2000/svg"
 width="1080.000000pt" height="1280.000000pt" viewBox="0 0 1080.000000 1280.000000"
 preserveAspectRatio="xMidYMid meet">
<metadata>
Created by potrace 1.15, written by Peter Selinger 2001-2017
</metadata>
<g transform="translate(0.000000,1280.000000) scale(0.100000,-0.100000)"
fill="#000000" stroke="none">
<path d="M3025 12755 l-270 -44 -265 -104 c-146 -57 -292 -116 -325 -129 -83
-34 -499 -326 -534 -375 -15 -21 -68 -81 -117 -133 -50 -52 -126 -138 -169
-190 -143 -170 -207 -234 -284 -286 -104 -69 -104 -69 -573 -280 l-418 -187
-34 -61 c-40 -71 -40 -71 12 -223 84 -246 190 -423 365 -612 119 -128 249
-244 257 -230 4 6 35 -5 78 -28 l71 -38 33 31 c30 28 597 535 739 661 101 89
234 156 402 202 l146 41 158 -19 c146 -17 167 -22 275 -67 l117 -50 159 -176
c353 -393 814 -1024 1341 -1838 303 -467 517 -816 1369 -2230 447 -743 542
-894 692 -1105 59 -82 176 -253 260 -380 321 -482 586 -856 936 -1320 605
-804 1150 -1583 1334 -1910 62 -110 178 -305 258 -434 133 -215 147 -241 167
-325 38 -153 58 -344 51 -481 -8 -145 8 -248 47 -298 70 -90 75 -93 198 -116
l114 -21 145 53 c222 81 421 196 645 375 242 194 329 279 366 361 l29 64 -17
81 c-26 120 -109 240 -341 487 -172 184 -192 210 -314 400 -80 127 -174 293
-248 439 -159 317 -206 403 -438 802 -164 283 -268 444 -588 913 -316 465
-439 635 -662 920 -151 193 -378 469 -505 615 -1249 1432 -1526 1740 -1564
1740 -6 0 -13 8 -16 18 -3 9 -140 180 -305 380 -343 413 -412 509 -1347 1854
-674 970 -927 1339 -921 1345 2 3 -36 86 -84 186 -49 100 -113 247 -143 327
-53 139 -55 151 -62 270 l-6 125 55 100 c43 78 73 118 139 183 73 71 100 89
192 133 59 28 164 66 233 85 167 46 355 56 554 29 137 -18 172 -29 623 -190
l130 -46 25 28 c14 16 38 44 53 62 15 18 30 31 34 28 5 -5 20 11 61 64 11 15
-11 29 -206 127 -135 69 -317 150 -478 213 -245 96 -273 104 -524 159 l-265
59 -285 5 -285 5 -270 -44z"/>
</g>
</svg>
