<svg width="40" height="40" viewBox="0 0 40 40" fill="none" xmlns="http://www.w3.org/2000/svg">
    <circle cx="20" cy="20" r="20" fill="black"/>
    <path d="M10.0291 8.125H29.9766C30.4801 8.125 30.9629 8.32502 31.319 8.68104C31.675 9.03706 31.875 9.51993 31.875 10.0234V29.9709C31.875 30.221 31.8257 30.4686 31.7301 30.6996C31.6344 30.9306 31.4941 31.1405 31.3173 31.3173C31.1405 31.4941 30.9306 31.6344 30.6996 31.73C30.4686 31.8257 30.221 31.875 29.9709 31.875H10.0291C9.77901 31.875 9.53142 31.8257 9.3004 31.73C9.06939 31.6344 8.85949 31.4941 8.68268 31.3173C8.50588 31.1405 8.36562 30.9306 8.26994 30.6996C8.17425 30.4686 8.125 30.221 8.125 29.9709V10.0234C8.12649 9.51941 8.32775 9.03656 8.68467 8.6807C9.04159 8.32483 9.52504 8.125 10.0291 8.125V8.125Z"
          fill="black"/>
    <path d="M20.0578 9.65259C13.8354 9.65259 8.81732 13.667 8.81732 18.5406C8.81732 21.704 10.9048 24.4739 14.0361 26.0556L12.9763 30.0139C12.9563 30.0733 12.9533 30.1369 12.9674 30.1979C12.9816 30.2589 13.0125 30.3147 13.0566 30.3591C13.1209 30.4158 13.2037 30.4472 13.2894 30.4474C13.3605 30.4417 13.428 30.4136 13.4821 30.3672L18.0426 27.2921C18.7157 27.385 19.3943 27.4333 20.0739 27.4366C26.2883 27.4366 31.3144 23.4222 31.3144 18.5406C31.3144 13.659 26.2722 9.65259 20.0578 9.65259Z"
          fill="white"/>
    <path d="M12.7512 17.1355H11.5227C11.3705 17.1399 11.2201 17.1009 11.0892 17.0231C11.0311 16.9866 10.9811 16.9386 10.9424 16.8819C10.9037 16.8253 10.8771 16.7612 10.8644 16.6938C10.8605 16.6511 10.8605 16.6082 10.8644 16.5655C10.8606 16.4855 10.8761 16.4058 10.9096 16.3331C10.9432 16.2604 10.9937 16.1969 11.0571 16.1479C11.197 16.0466 11.366 15.993 11.5388 15.9953H15.2401C15.3936 15.9899 15.545 16.032 15.6737 16.1158C15.7332 16.1506 15.7842 16.1982 15.8231 16.2552C15.862 16.3121 15.8877 16.3769 15.8985 16.445C15.9024 16.485 15.9024 16.5254 15.8985 16.5655C15.9023 16.6466 15.8868 16.7274 15.8533 16.8014C15.8198 16.8753 15.7693 16.9403 15.7058 16.9909C15.5693 17.0922 15.4019 17.1433 15.2321 17.1355H14.0438V21.3587C14.0487 21.4487 14.0347 21.5386 14.0029 21.6229C13.9712 21.7072 13.9222 21.7841 13.8592 21.8485C13.7987 21.91 13.7261 21.9583 13.6459 21.9901C13.5657 22.0219 13.4797 22.0365 13.3935 22.0331C13.2427 22.0374 13.0951 21.9892 12.976 21.8967C12.8626 21.8063 12.7856 21.6779 12.7592 21.5353C12.7513 21.4767 12.7513 21.4173 12.7592 21.3587L12.7512 17.1355Z"
          fill="black"/>
    <path d="M16.2529 16.3084C16.2882 16.1763 16.3711 16.0619 16.4857 15.9872C16.6078 15.918 16.747 15.8846 16.8872 15.8909H17.1923C17.341 15.8855 17.4884 15.9217 17.6178 15.9953C17.7549 16.0875 17.8524 16.2279 17.8908 16.3887L19.4966 20.925C19.5382 21.0434 19.573 21.1641 19.6009 21.2864C19.6037 21.3372 19.6037 21.3881 19.6009 21.4389C19.6037 21.5171 19.5893 21.595 19.5587 21.6672C19.5282 21.7393 19.4824 21.8039 19.4243 21.8564C19.3681 21.9141 19.3005 21.9595 19.2259 21.9899C19.1513 22.0203 19.0713 22.035 18.9907 22.033C18.8669 22.0453 18.7425 22.0156 18.6377 21.9486C18.5328 21.8816 18.4535 21.7813 18.4127 21.6637L18.0754 20.6762H15.9638L15.6266 21.6637C15.5867 21.7836 15.5065 21.8859 15.3996 21.9532C15.2928 22.0206 15.1659 22.0488 15.0405 22.033C14.9047 22.0366 14.7718 21.9941 14.6632 21.9126C14.5573 21.8284 14.4859 21.7086 14.4624 21.5754C14.4582 21.53 14.4582 21.4843 14.4624 21.4389C14.4486 21.3592 14.4486 21.2778 14.4624 21.1981C14.4624 21.1098 14.5186 21.0133 14.5507 20.925L16.2529 16.3084ZM17.0558 17.3602L16.293 19.7689H17.8105L17.0558 17.3602Z"
          fill="black"/>
    <path d="M19.7848 16.5656C19.7767 16.3854 19.8402 16.2093 19.9614 16.0758C20.0231 16.0136 20.0971 15.965 20.1787 15.9332C20.2603 15.9014 20.3477 15.887 20.4352 15.891C20.5856 15.8893 20.7323 15.9373 20.8527 16.0276C20.9642 16.1218 21.0382 16.2528 21.0614 16.3969C21.0693 16.4528 21.0693 16.5096 21.0614 16.5656V20.7888H23.2694C23.4224 20.7868 23.5728 20.8285 23.7029 20.9091C23.7614 20.9452 23.8116 20.9932 23.8503 21.0499C23.8891 21.1066 23.9154 21.1708 23.9277 21.2383C23.9277 21.2383 23.9277 21.3187 23.9277 21.3588C23.9316 21.4388 23.916 21.5184 23.8825 21.5911C23.8489 21.6638 23.7984 21.7273 23.735 21.7763C23.5951 21.8777 23.4261 21.9311 23.2533 21.9288H20.5395C20.3667 21.9399 20.1949 21.895 20.0498 21.8004C19.92 21.7034 19.8335 21.5592 19.8089 21.399C19.803 21.3108 19.803 21.2222 19.8089 21.134L19.7848 16.5656Z"
          fill="black"/>
    <path d="M24.0724 16.5655C24.0676 16.3858 24.1307 16.2109 24.2491 16.0757C24.3694 15.9664 24.5238 15.9018 24.6861 15.893C24.8485 15.8842 25.0089 15.9318 25.1403 16.0275C25.2542 16.1208 25.3311 16.2518 25.3571 16.3968C25.361 16.4529 25.361 16.5093 25.3571 16.5655V18.5325L27.3884 16.188C27.4666 16.1081 27.5498 16.033 27.6373 15.9633C27.7197 15.9142 27.8143 15.8891 27.9103 15.891C28.0506 15.8902 28.1878 15.9322 28.3037 16.0114C28.3583 16.0482 28.4049 16.0956 28.4408 16.1508C28.4766 16.206 28.501 16.2678 28.5124 16.3326C28.5157 16.3485 28.5157 16.3649 28.5124 16.3808C28.5085 16.3993 28.5085 16.4184 28.5124 16.437C28.5122 16.5215 28.49 16.6045 28.4482 16.6779C28.4056 16.7556 28.3544 16.8282 28.2957 16.8946L26.9628 18.3559L28.5686 20.8449V20.9251C28.652 21.0402 28.717 21.1676 28.7613 21.3026V21.3426C28.7706 21.4357 28.7572 21.5296 28.7222 21.6163C28.6873 21.703 28.6318 21.7799 28.5606 21.8404C28.4267 21.9417 28.2628 21.9954 28.0949 21.993C27.9834 21.9976 27.8726 21.9726 27.7738 21.9207C27.6668 21.849 27.5787 21.7526 27.5168 21.6397L26.0235 19.231L25.3089 19.9778V21.3185C25.3137 21.4982 25.2506 21.6731 25.1323 21.8083C25.0688 21.8703 24.9933 21.9187 24.9105 21.9505C24.8276 21.9823 24.7392 21.9967 24.6505 21.993C24.5024 21.9961 24.3577 21.9479 24.241 21.8565C24.1276 21.7661 24.0507 21.6379 24.0243 21.4952C24.0163 21.4366 24.0163 21.3771 24.0243 21.3185L24.0724 16.5655Z"
          fill="black"/>
</svg>
